<svg width="7" height="12" viewBox="0 0 7 12" fill="none" xmlns="http://www.w3.org/2000/svg">
<path d="M5.1806 0.00154678C5.38043 0.00115675 5.57409 0.0707521 5.72796 0.198254C5.81456 0.27005 5.88615 0.358228 5.93862 0.457733C5.99109 0.557239 6.02341 0.666117 6.03374 0.778134C6.04407 0.890152 6.0322 1.00311 5.99881 1.11053C5.96541 1.21795 5.91116 1.31773 5.83914 1.40415L2.00764 5.98827L5.7023 10.5809C5.77334 10.6684 5.8264 10.7691 5.85841 10.8771C5.89042 10.9852 5.90077 11.0985 5.88884 11.2106C5.87692 11.3226 5.84297 11.4312 5.78894 11.5301C5.73491 11.629 5.66187 11.7163 5.57402 11.7868C5.48553 11.8647 5.3819 11.9234 5.26964 11.9593C5.15738 11.9952 5.0389 12.0076 4.92166 11.9955C4.80441 11.9835 4.69091 11.9473 4.5883 11.8893C4.48569 11.8313 4.39616 11.7528 4.32536 11.6586L0.194517 6.52708C0.0687256 6.37404 -4.09762e-05 6.18209 -4.09589e-05 5.98399C-4.09416e-05 5.7859 0.0687257 5.59394 0.194517 5.44091L4.47075 0.309436C4.55654 0.205936 4.66553 0.124121 4.78887 0.0706252C4.9122 0.0171308 5.04641 -0.00653562 5.1806 0.00154678Z" fill="#393939"/>
</svg>
