<svg width="18" height="18" viewBox="0 0 18 18" fill="none" xmlns="http://www.w3.org/2000/svg">
<path d="M9.40594 8.74735L14.3304 3.81804C14.4173 3.73074 14.466 3.61256 14.466 3.48939C14.4659 3.36622 14.417 3.24811 14.33 3.16092C14.1559 2.98767 13.8492 2.98679 13.6733 3.16179L8.75013 8.0911L3.82519 3.16048C3.65019 2.98767 3.3435 2.98854 3.16938 3.16136C3.12616 3.2044 3.09194 3.25563 3.06873 3.31204C3.04552 3.36845 3.03378 3.42892 3.03419 3.48992C3.03419 3.61417 3.08232 3.73054 3.16938 3.81673L8.09388 8.74692L3.16982 13.6775C3.08292 13.765 3.03426 13.8833 3.03451 14.0066C3.03475 14.1299 3.08389 14.248 3.17113 14.3351C3.25557 14.4187 3.375 14.4668 3.49838 14.4668H3.501C3.62481 14.4664 3.74425 14.4178 3.82694 14.3334L8.75013 9.40404L13.6751 14.3347C13.7621 14.4213 13.8785 14.4694 14.0019 14.4694C14.0629 14.4696 14.1233 14.4577 14.1797 14.4344C14.2361 14.4112 14.2874 14.377 14.3305 14.3338C14.3736 14.2907 14.4078 14.2395 14.4311 14.1831C14.4543 14.1267 14.4662 14.0662 14.4661 14.0052C14.4661 13.8814 14.4179 13.7646 14.3304 13.6784L9.40594 8.74735Z" fill="white"/>
</svg>
